<svg width="22" height="24" viewBox="0 0 22 24" fill="none" xmlns="http://www.w3.org/2000/svg">
<path d="M21.75 12C21.75 18.5103 16.917 23.75 11 23.75C5.08297 23.75 0.25 18.5103 0.25 12C0.25 5.48973 5.08297 0.25 11 0.25C16.917 0.25 21.75 5.48973 21.75 12Z" stroke="#109646" stroke-width="0.5"/>
<path d="M12.1985 7.90873C12.8609 7.90873 13.3983 7.35909 13.3983 6.68164C13.3983 6.00418 12.8609 5.45454 12.1985 5.45454C11.5361 5.45454 10.9987 6.00418 10.9987 6.68164C10.9987 7.35909 11.5361 7.90873 12.1985 7.90873ZM14.5606 11.7204L13.9782 11.4187L13.7357 10.6671C13.3683 9.52696 12.3435 8.72935 11.1812 8.72679C10.2813 8.72424 9.7839 8.98499 8.84906 9.37102C8.30915 9.59343 7.86673 10.0152 7.60677 10.5521L7.4393 10.8998C7.24433 11.3037 7.40181 11.7945 7.79424 11.9965C8.18418 12.1984 8.65909 12.0348 8.85656 11.6309L9.02403 11.2832C9.11152 11.1043 9.25649 10.9637 9.43646 10.8895L10.1064 10.6134L9.72641 12.1652C9.59644 12.6969 9.73641 13.2619 10.0989 13.6684L11.5961 15.3403C11.7761 15.5423 11.9035 15.7851 11.9685 16.0484L12.426 17.9223C12.5334 18.3595 12.9684 18.6279 13.3958 18.518C13.8232 18.408 14.0857 17.9632 13.9782 17.5261L13.4233 15.2508C13.3583 14.9875 13.2308 14.7421 13.0509 14.5427L11.9135 13.2721L12.3435 11.5159L12.4809 11.9377C12.6134 12.3493 12.8984 12.6893 13.2733 12.8836L13.8557 13.1852C14.2457 13.3872 14.7206 13.2236 14.918 12.8197C15.1105 12.4183 14.953 11.9223 14.5606 11.7204ZM8.83906 15.3173C8.75908 15.5244 8.6391 15.711 8.48412 15.8669L7.23434 17.1477C6.92189 17.4673 6.92189 17.9862 7.23434 18.3058C7.54678 18.6253 8.0517 18.6253 8.36414 18.3058L9.84889 16.7873C10.0014 16.6313 10.1213 16.4447 10.2038 16.2376L10.5413 15.3735C9.15901 13.832 9.57394 14.305 9.35648 14.0007L8.83906 15.3173Z" fill="#109646"/>
</svg>
